<mxfile host="app.diagrams.net" modified="2023-10-15T18:19:09.545Z" agent="Mozilla/5.0 (Windows NT 10.0; Win64; x64) AppleWebKit/537.36 (KHTML, like Gecko) Chrome/117.0.0.0 Safari/537.36" etag="XNK18S0or4IPrD16P0n2" version="22.0.4" type="github">
  <diagram name="Page-1" id="SEeTiFl5rVw57Y517ee5">
    <mxGraphModel dx="880" dy="478" grid="1" gridSize="10" guides="1" tooltips="1" connect="1" arrows="1" fold="1" page="1" pageScale="1" pageWidth="850" pageHeight="1100" math="0" shadow="0">
      <root>
        <mxCell id="0" />
        <mxCell id="1" parent="0" />
        <mxCell id="GByR40YoezbTgpoBRod4-1" value="" style="rounded=0;whiteSpace=wrap;html=1;" vertex="1" parent="1">
          <mxGeometry x="80" y="80" width="480" height="280" as="geometry" />
        </mxCell>
        <mxCell id="GByR40YoezbTgpoBRod4-3" value="Machine outside of&amp;nbsp;&lt;br&gt;Network&lt;br&gt;&lt;br&gt;&lt;br&gt;&lt;br&gt;&lt;br&gt;&lt;br&gt;" style="rounded=0;whiteSpace=wrap;html=1;" vertex="1" parent="1">
          <mxGeometry x="600" y="160" width="120" height="120" as="geometry" />
        </mxCell>
        <mxCell id="GByR40YoezbTgpoBRod4-4" value="Digital Ocean Droplet" style="text;html=1;align=center;verticalAlign=middle;resizable=0;points=[];autosize=1;strokeColor=none;fillColor=none;" vertex="1" parent="1">
          <mxGeometry x="130" y="80" width="140" height="30" as="geometry" />
        </mxCell>
        <mxCell id="GByR40YoezbTgpoBRod4-9" value="" style="rounded=0;whiteSpace=wrap;html=1;" vertex="1" parent="1">
          <mxGeometry x="90" y="110" width="320" height="240" as="geometry" />
        </mxCell>
        <mxCell id="GByR40YoezbTgpoBRod4-10" value="Docker" style="text;html=1;align=center;verticalAlign=middle;resizable=0;points=[];autosize=1;strokeColor=none;fillColor=none;" vertex="1" parent="1">
          <mxGeometry x="135" y="110" width="60" height="30" as="geometry" />
        </mxCell>
        <mxCell id="GByR40YoezbTgpoBRod4-5" value="Mysql" style="rounded=1;whiteSpace=wrap;html=1;" vertex="1" parent="1">
          <mxGeometry x="105" y="140" width="120" height="60" as="geometry" />
        </mxCell>
        <mxCell id="GByR40YoezbTgpoBRod4-6" value="Frontend" style="rounded=1;whiteSpace=wrap;html=1;" vertex="1" parent="1">
          <mxGeometry x="105" y="210" width="120" height="60" as="geometry" />
        </mxCell>
        <mxCell id="GByR40YoezbTgpoBRod4-7" value="Backend" style="rounded=1;whiteSpace=wrap;html=1;" vertex="1" parent="1">
          <mxGeometry x="105" y="280" width="120" height="60" as="geometry" />
        </mxCell>
        <mxCell id="GByR40YoezbTgpoBRod4-14" style="edgeStyle=orthogonalEdgeStyle;rounded=0;orthogonalLoop=1;jettySize=auto;html=1;exitX=0;exitY=0.5;exitDx=0;exitDy=0;entryX=1;entryY=0.5;entryDx=0;entryDy=0;" edge="1" parent="1" source="GByR40YoezbTgpoBRod4-11" target="GByR40YoezbTgpoBRod4-5">
          <mxGeometry relative="1" as="geometry" />
        </mxCell>
        <mxCell id="GByR40YoezbTgpoBRod4-11" value="3607" style="rhombus;whiteSpace=wrap;html=1;" vertex="1" parent="1">
          <mxGeometry x="260" y="150" width="40" height="40" as="geometry" />
        </mxCell>
        <mxCell id="GByR40YoezbTgpoBRod4-15" style="edgeStyle=orthogonalEdgeStyle;rounded=0;orthogonalLoop=1;jettySize=auto;html=1;exitX=0;exitY=0.5;exitDx=0;exitDy=0;entryX=1;entryY=0.5;entryDx=0;entryDy=0;" edge="1" parent="1" source="GByR40YoezbTgpoBRod4-12" target="GByR40YoezbTgpoBRod4-6">
          <mxGeometry relative="1" as="geometry" />
        </mxCell>
        <mxCell id="GByR40YoezbTgpoBRod4-12" value="4201" style="rhombus;whiteSpace=wrap;html=1;" vertex="1" parent="1">
          <mxGeometry x="260" y="220" width="40" height="40" as="geometry" />
        </mxCell>
        <mxCell id="GByR40YoezbTgpoBRod4-16" style="edgeStyle=orthogonalEdgeStyle;rounded=0;orthogonalLoop=1;jettySize=auto;html=1;exitX=0;exitY=0.5;exitDx=0;exitDy=0;entryX=1;entryY=0.5;entryDx=0;entryDy=0;" edge="1" parent="1" source="GByR40YoezbTgpoBRod4-13" target="GByR40YoezbTgpoBRod4-7">
          <mxGeometry relative="1" as="geometry" />
        </mxCell>
        <mxCell id="GByR40YoezbTgpoBRod4-13" value="8081" style="rhombus;whiteSpace=wrap;html=1;" vertex="1" parent="1">
          <mxGeometry x="260" y="290" width="40" height="40" as="geometry" />
        </mxCell>
        <mxCell id="GByR40YoezbTgpoBRod4-19" style="edgeStyle=orthogonalEdgeStyle;rounded=0;orthogonalLoop=1;jettySize=auto;html=1;exitX=0;exitY=0;exitDx=0;exitDy=0;entryX=1;entryY=0.5;entryDx=0;entryDy=0;" edge="1" parent="1" source="GByR40YoezbTgpoBRod4-18" target="GByR40YoezbTgpoBRod4-11">
          <mxGeometry relative="1" as="geometry" />
        </mxCell>
        <mxCell id="GByR40YoezbTgpoBRod4-20" style="edgeStyle=orthogonalEdgeStyle;rounded=0;orthogonalLoop=1;jettySize=auto;html=1;exitX=0;exitY=0.5;exitDx=0;exitDy=0;entryX=1;entryY=0.5;entryDx=0;entryDy=0;" edge="1" parent="1" source="GByR40YoezbTgpoBRod4-18" target="GByR40YoezbTgpoBRod4-12">
          <mxGeometry relative="1" as="geometry" />
        </mxCell>
        <mxCell id="GByR40YoezbTgpoBRod4-21" style="edgeStyle=orthogonalEdgeStyle;rounded=0;orthogonalLoop=1;jettySize=auto;html=1;exitX=0;exitY=1;exitDx=0;exitDy=0;entryX=1;entryY=0.5;entryDx=0;entryDy=0;" edge="1" parent="1" source="GByR40YoezbTgpoBRod4-18" target="GByR40YoezbTgpoBRod4-13">
          <mxGeometry relative="1" as="geometry" />
        </mxCell>
        <mxCell id="GByR40YoezbTgpoBRod4-18" value="Localhost/" style="rounded=1;whiteSpace=wrap;html=1;" vertex="1" parent="1">
          <mxGeometry x="320" y="230" width="60" height="20" as="geometry" />
        </mxCell>
        <mxCell id="GByR40YoezbTgpoBRod4-24" style="edgeStyle=orthogonalEdgeStyle;rounded=0;orthogonalLoop=1;jettySize=auto;html=1;exitX=0;exitY=0.5;exitDx=0;exitDy=0;entryX=0.5;entryY=0;entryDx=0;entryDy=0;fillColor=#f8cecc;strokeColor=#b85450;strokeWidth=3;" edge="1" parent="1" source="GByR40YoezbTgpoBRod4-23" target="GByR40YoezbTgpoBRod4-18">
          <mxGeometry relative="1" as="geometry" />
        </mxCell>
        <mxCell id="GByR40YoezbTgpoBRod4-32" style="edgeStyle=orthogonalEdgeStyle;rounded=1;orthogonalLoop=1;jettySize=auto;html=1;exitX=0.5;exitY=1;exitDx=0;exitDy=0;entryX=0.5;entryY=0;entryDx=0;entryDy=0;fillColor=#dae8fc;strokeColor=#6c8ebf;strokeWidth=2;" edge="1" parent="1" source="GByR40YoezbTgpoBRod4-23" target="GByR40YoezbTgpoBRod4-28">
          <mxGeometry relative="1" as="geometry" />
        </mxCell>
        <mxCell id="GByR40YoezbTgpoBRod4-23" value="In a test environment&amp;nbsp;&lt;br&gt;we just do a&amp;nbsp;&lt;br&gt;localhost:xxxx and&amp;nbsp;&lt;br&gt;acess it from here" style="rounded=0;whiteSpace=wrap;html=1;" vertex="1" parent="1">
          <mxGeometry x="425" y="110" width="120" height="60" as="geometry" />
        </mxCell>
        <mxCell id="GByR40YoezbTgpoBRod4-31" style="edgeStyle=orthogonalEdgeStyle;rounded=0;orthogonalLoop=1;jettySize=auto;html=1;exitX=0;exitY=0.5;exitDx=0;exitDy=0;entryX=1;entryY=0.5;entryDx=0;entryDy=0;fillColor=#dae8fc;strokeColor=#6c8ebf;strokeWidth=2;" edge="1" parent="1" source="GByR40YoezbTgpoBRod4-28" target="GByR40YoezbTgpoBRod4-18">
          <mxGeometry relative="1" as="geometry" />
        </mxCell>
        <mxCell id="GByR40YoezbTgpoBRod4-28" value="Renote ip digitalocean&lt;br&gt;" style="text;html=1;strokeColor=none;fillColor=none;align=center;verticalAlign=middle;whiteSpace=wrap;rounded=0;labelBorderColor=default;" vertex="1" parent="1">
          <mxGeometry x="455" y="260" width="60" height="30" as="geometry" />
        </mxCell>
        <mxCell id="GByR40YoezbTgpoBRod4-30" style="edgeStyle=orthogonalEdgeStyle;orthogonalLoop=1;jettySize=auto;html=1;exitX=0;exitY=0.5;exitDx=0;exitDy=0;entryX=1;entryY=0.5;entryDx=0;entryDy=0;fillColor=#dae8fc;strokeColor=#6c8ebf;strokeWidth=2;rounded=0;" edge="1" parent="1" source="GByR40YoezbTgpoBRod4-29" target="GByR40YoezbTgpoBRod4-28">
          <mxGeometry relative="1" as="geometry" />
        </mxCell>
        <mxCell id="GByR40YoezbTgpoBRod4-29" value="Browser" style="rounded=0;whiteSpace=wrap;html=1;" vertex="1" parent="1">
          <mxGeometry x="620" y="220" width="80" height="40" as="geometry" />
        </mxCell>
      </root>
    </mxGraphModel>
  </diagram>
</mxfile>
